<svg width="136" height="19" viewBox="0 0 136 19" fill="none" xmlns="http://www.w3.org/2000/svg">
<path d="M89.7562 11.9864H82.3889L79.8484 18.3883H78.4512L85.7423 0.17334H86.5552L93.6939 18.3883H92.2712L89.7562 11.9864ZM82.8462 10.8432H89.3243L86.8601 4.31426C86.6568 3.80617 86.4028 3.09485 86.1233 2.18029C85.8947 2.96783 85.6406 3.67915 85.3866 4.33967L82.8462 10.8432Z" fill="#083072"/>
<path d="M107.183 5.46792C107.183 7.22082 106.573 8.56726 105.379 9.50722C104.21 10.4472 102.508 10.9045 100.324 10.9045H97.529V18.3988H96.2588V0.26001H100.705C105.023 0.26001 107.183 1.98751 107.183 5.46792ZM97.529 9.81208H100.019C102.051 9.81208 103.55 9.48182 104.439 8.7959C105.354 8.13538 105.811 7.04299 105.811 5.51873C105.811 4.12148 105.379 3.0799 104.515 2.41939C103.651 1.73347 102.33 1.40321 100.527 1.40321H97.529V9.81208Z" fill="#083072"/>
<path d="M122.044 5.46792C122.044 7.22082 121.434 8.56726 120.24 9.50722C119.072 10.4472 117.37 10.9045 115.185 10.9045H112.39V18.3988H111.12V0.26001H115.566C119.885 0.26001 122.044 1.98751 122.044 5.46792ZM112.39 9.81208H114.88C116.912 9.81208 118.411 9.48182 119.3 8.7959C120.215 8.13538 120.672 7.04299 120.672 5.51873C120.672 4.12148 120.24 3.0799 119.377 2.41939C118.513 1.73347 117.192 1.40321 115.388 1.40321H112.39V9.81208Z" fill="#083072"/>
<path d="M136 13.7184C136 15.2172 135.441 16.4367 134.324 17.3258C133.231 18.1896 131.732 18.6468 129.903 18.6468C127.693 18.6468 125.991 18.3928 124.797 17.9101V16.6399C126.118 17.1988 127.769 17.4782 129.802 17.4782C131.3 17.4782 132.469 17.1226 133.333 16.4621C134.222 15.7761 134.654 14.8616 134.654 13.7692C134.654 13.0833 134.501 12.499 134.222 12.0671C133.917 11.6098 133.46 11.2033 132.799 10.8223C132.139 10.4412 131.199 10.0601 129.929 9.62827C128.074 8.99316 126.804 8.30724 126.093 7.54511C125.381 6.80838 125.026 5.84302 125.026 4.5982C125.026 3.25177 125.559 2.13397 126.626 1.27022C127.693 0.431874 129.039 0 130.716 0C132.418 0 134.019 0.330257 135.518 0.965368L135.06 2.05776C133.561 1.42265 132.113 1.11779 130.742 1.11779C129.395 1.11779 128.328 1.42265 127.541 2.03235C126.753 2.66746 126.347 3.50581 126.347 4.57279C126.347 5.23331 126.474 5.79221 126.728 6.22408C126.956 6.65596 127.363 7.03702 127.922 7.39269C128.481 7.72294 129.42 8.12941 130.767 8.6121C132.19 9.09478 133.257 9.57747 133.968 10.0347C134.679 10.492 135.187 11.0255 135.518 11.6098C135.848 12.1941 136 12.88 136 13.7184Z" fill="#083072"/>
<path d="M26.7673 18.4641L17.3018 0.216553H22.7627L27.6054 9.5728L32.4027 0.216553H37.8637L28.3982 18.4641H26.7673Z" fill="#083072"/>
<path d="M46.6104 0.216553H40.9297V18.4641H46.6104V0.216553Z" fill="#083072"/>
<path d="M53.0408 12.0846C55.6755 14.9792 59.6888 15.1001 59.6888 12.9295C59.6888 11.6431 58.3917 11.241 57.054 10.8384C53.5443 9.79286 51.1182 8.74851 51.1182 5.41159C51.1182 2.23562 54.0859 0.144531 57.5142 0.144531C60.6091 0.144531 62.2802 0.787912 64.7063 2.19548L62.2802 5.85389C58.768 3.44131 56.3852 3.64319 56.1357 5.49226C55.927 6.77862 57.8906 7.01945 59.9812 7.70296C62.5317 8.42701 64.9149 10.0754 64.9149 13.0495C64.9149 15.8241 61.9467 18.4775 58.2669 18.4775C55.0067 18.4775 51.9137 17.4725 49.6963 15.3413L53.0408 12.0846Z" fill="#083072"/>
<path d="M73.6872 0.216553H68.0088V18.4641H73.6872V0.216553Z" fill="#083072"/>
<path d="M11.094 0.187744L20.5596 18.4353H15.101L10.2583 9.07904L5.4586 18.4353H0L9.46552 0.187744H11.094Z" fill="#083072"/>
</svg>
